<?xml version="1.0" encoding="utf-8"?>
<!-- Generator: Adobe Illustrator 16.0.3, SVG Export Plug-In . SVG Version: 6.00 Build 0)  -->
<!DOCTYPE svg PUBLIC "-//W3C//DTD SVG 1.1//EN" "http://www.w3.org/Graphics/SVG/1.1/DTD/svg11.dtd">
<svg version="1.1" id="Warstwa_1" xmlns="http://www.w3.org/2000/svg" xmlns:xlink="http://www.w3.org/1999/xlink" x="0px" y="0px"
	 viewBox="0 31 119.48 46" enable-background="new 0 31 119.48 46" xml:space="preserve">
<g>
	<defs>
		<rect id="SVGID_1_" x="3.026" y="31" width="113.428" height="46"/>
	</defs>
	<clipPath id="SVGID_2_">
		<use xlink:href="#SVGID_1_"  overflow="visible"/>
	</clipPath>
	<g clip-path="url(#SVGID_2_)">
		<path fill="#626769" d="M59.949,38.937c0-3.44-1.999-6.297-5.61-7.275c-1.782-0.499-3.49-0.653-6.941-0.653h-8.237v1.329
			l1.136,0.234c2.116,0.472,2.312,0.551,2.35,1.412c0.038,0.861,0.042,2.502,0.042,4.379v13.064c0,1.888,0,3.48-0.042,4.385
			c-0.042,0.901-0.234,0.936-2.35,1.406l-1.136,0.234v1.329h11.375v-1.329l-1.136-0.234c-2.078-0.471-2.317-0.547-2.354-1.406
			c-0.038-0.861-0.038-2.508-0.038-4.385V33.16c0.156,0,0.901-0.079,1.515-0.079c3.334,0,5.45,1.51,6.434,3.952
			c0.342,0.884,0.502,1.828,0.47,2.775c0,2.076-0.666,4.303-2.51,5.439c-1.135,0.754-2.649,0.978-4.508,0.86v1.446
			C55.584,48.751,59.949,44.425,59.949,38.937z M82.705,31.008H62.428v1.329l1.135,0.234c2.631,0.472,2.903,0.551,2.944,1.412
			c0.042,0.861,0.038,2.502,0.038,4.379v13.064c0,1.888,0,3.48-0.038,4.385c-0.038,0.901-0.276,0.936-2.354,1.406l-1.135,0.234
			v1.329h11.374v-1.329l-1.135-0.234c-2.121-0.43-2.313-0.509-2.354-1.37c-0.042-0.86-0.038-2.544-0.038-4.421v-5.005
			c3.406,0,5.92,0.037,6.783,0.155c0.788,0.079,0.942,0.233,1.135,0.939c0.314,1.133,0.378,1.51,0.587,2.465h1.294v-8.803h-1.294
			c-0.273,1.174-0.353,1.684-0.587,2.503c-0.154,0.51-0.431,0.546-1.135,0.626c-1.018,0.159-3.448,0.196-6.783,0.196v-11.54
			c8.902,0,9.413,0.313,9.727,1.684c0.235,0.978,0.315,1.797,0.549,3.247h1.412c0.155-2.624,0.234-4.968,0.155-6.886H82.705z
			 M115.496,57.648c-2.157-0.51-2.824-1.174-6.238-4.851l-4.005-4.345c-0.654-0.795-1.419-1.492-2.271-2.072
			c2.904-0.861,5.414-3.832,5.414-7.509c0-3.397-1.999-6.338-5.569-7.278c-1.705-0.441-3.466-0.638-5.227-0.585
			c-1.806,0-2.707,0.08-4.277,0.08c-1.779,0-6.227-0.08-6.227-0.08v1.329l1.136,0.234c2.12,0.472,2.313,0.551,2.354,1.412
			c0.042,0.861,0.038,2.502,0.038,4.379v13.064c0,1.888,0,3.48-0.038,4.385c-0.038,0.901-0.234,0.936-2.354,1.406l-1.136,0.234
			v1.329H98.47v-1.329l-1.136-0.234c-2.077-0.471-2.313-0.547-2.354-1.406c-0.042-0.861-0.038-2.508-0.038-4.385v-3.91h3.687
			c0.606,0.501,1.158,1.064,1.646,1.68l3.884,4.616c4.039,4.753,5.606,5.437,10.822,5.202L115.496,57.648z M103.841,39.732
			c0.018,0.755-0.089,1.507-0.313,2.228c-0.549,1.917-1.727,3.397-3.884,3.397H94.95V33.198c0.651-0.076,1.305-0.115,1.96-0.117
			c3.298,0,5.493,1.408,6.436,3.835c0.345,0.898,0.517,1.854,0.507,2.816H103.841z"/>
		<path fill="#626769" d="M8.399,69.419c0.025-0.882-0.578-1.661-1.448-1.869c-0.587-0.142-1.192-0.198-1.796-0.169H3.026v0.341
			l0.296,0.061c0.545,0.119,0.595,0.137,0.606,0.373c0.011,0.235,0,0.643,0,1.122v3.342c0,0.478,0,0.89,0,1.122
			c0,0.23-0.061,0.238-0.606,0.373l-0.296,0.037v0.341h2.94v-0.341l-0.288-0.059c-0.534-0.121-0.599-0.144-0.606-0.375
			s0-0.643,0-1.121v-4.659c0.042,0,0.234-0.019,0.397-0.019c0.718-0.06,1.392,0.35,1.66,1.01c0.088,0.226,0.13,0.468,0.122,0.71
			c0.044,0.553-0.209,1.088-0.667,1.41c-0.354,0.194-0.762,0.271-1.164,0.22v0.375c1.853,0.31,2.979-0.8,2.979-2.202V69.419z
			 M14.102,71.864c0.016-0.492-0.1-0.979-0.333-1.414c-0.425-0.707-1.218-1.117-2.05-1.058c-0.558-0.003-1.104,0.157-1.568,0.46
			c-0.72,0.499-1.123,1.332-1.061,2.198c0,1.539,0.86,2.53,2.463,2.53c1.397,0,2.565-0.979,2.565-2.74L14.102,71.864z
			 M13.022,72.141c0,1.121-0.466,1.909-1.327,1.909c-1.026,0-1.515-0.968-1.515-2.189c0-0.961,0.25-1.951,1.326-1.951
			c0.486-0.031,0.946,0.214,1.187,0.632c0.265,0.489,0.384,1.045,0.345,1.6H13.022z M16.997,74.193l-0.379-0.124
			c-0.223-0.067-0.234-0.09-0.242-0.328c-0.007-0.24,0-0.782,0-1.302v-5.69h-0.11c-0.562,0.008-1.118,0.108-1.645,0.299v0.222
			l0.436,0.107c0.235,0.061,0.296,0.131,0.303,0.353c0.008,0.22,0,0.721,0,1.199v3.511c0,0.52,0,1.032,0,1.302
			c0,0.269-0.03,0.261-0.243,0.328l-0.405,0.124v0.299h2.312L16.997,74.193z M21.37,73c0-0.658-0.478-1.122-1.3-1.439l-0.371-0.138
			c-0.78-0.311-0.94-0.621-0.94-0.931c0-0.311,0.292-0.67,0.909-0.67c0.208,0,0.415,0.034,0.61,0.102
			c0.224,0.09,0.284,0.269,0.405,0.688l0.072,0.243h0.314c0.038-0.461,0.03-0.924-0.022-1.383c-0.527,0-0.83-0.091-1.318-0.091
			c-1.206,0-1.854,0.71-1.854,1.496c0,0.579,0.292,1.091,1.137,1.432l0.314,0.131c0.811,0.329,1.023,0.609,1.023,0.938
			c0,0.399-0.322,0.747-0.962,0.747c-0.284,0.006-0.567-0.044-0.83-0.15c-0.247-0.1-0.307-0.249-0.379-0.619l-0.068-0.329h-0.307
			c-0.066,0.472-0.066,0.948,0,1.421c0.512,0.089,1.03,0.143,1.549,0.159c1.349,0,1.989-0.82,1.989-1.592L21.37,73z M24.277,74.511
			v-0.3l-0.428-0.131c-0.201-0.07-0.224-0.082-0.231-0.328c-0.007-0.247,0-0.774,0-1.294v-5.709h-0.129
			c-0.562,0.008-1.118,0.108-1.645,0.299v0.222l0.436,0.107c0.235,0.061,0.296,0.131,0.304,0.353c0.007,0.22,0,0.721,0,1.199v3.521
			c0,0.52,0,1.021,0,1.291c0,0.269-0.03,0.261-0.243,0.328l-0.405,0.124v0.299L24.277,74.511z M27.338,74.278
			c-0.346-0.054-0.658-0.234-0.872-0.509l-1.345-1.6c-0.158-0.224-0.346-0.427-0.557-0.602c0.112-0.073,0.218-0.158,0.314-0.251
			l1.198-1.05c0.379-0.341,0.455-0.374,0.689-0.419l0.406-0.102v-0.299h-2.354v0.312l0.273,0.059
			c0.466,0.102,0.428,0.25,0.265,0.411c-0.528,0.621-1.111,1.192-1.743,1.709c0.128,0.101,0.241,0.219,0.333,0.352l1.016,1.271
			c0.637,0.849,0.86,1.01,2.274,0.998L27.338,74.278z M30.302,74.511v-0.3l-0.379-0.123c-0.212-0.067-0.231-0.09-0.242-0.329
			s0-0.781,0-1.301v-3.021h-0.129c-0.565,0.005-1.125,0.105-1.656,0.298v0.191l0.436,0.112c0.235,0.06,0.295,0.131,0.307,0.348
			c0.012,0.218,0,0.722,0,1.204v0.837c0,0.52,0,1.032,0,1.302c0,0.269-0.022,0.262-0.242,0.329l-0.379,0.123v0.299L30.302,74.511z
			 M29.707,67.609c0.019-0.238-0.099-0.466-0.306-0.59c-0.206-0.125-0.466-0.125-0.672,0c-0.206,0.124-0.325,0.352-0.306,0.59
			c-0.02,0.174,0.04,0.348,0.163,0.473c0.123,0.126,0.296,0.19,0.473,0.179c0.176,0.005,0.347-0.062,0.47-0.185
			C29.651,67.952,29.716,67.783,29.707,67.609z M38.308,67.389h-5.244v0.341l0.295,0.06c0.678,0.119,0.758,0.139,0.758,0.373
			c0,0.235,0,0.644,0,1.121v3.344c0,0.479,0,0.889,0,1.12c0,0.232-0.068,0.241-0.606,0.376l-0.296,0.059v0.341h2.94v-0.341
			l-0.292-0.059c-0.55-0.113-0.599-0.132-0.61-0.354c-0.011-0.221,0-0.65,0-1.12v-1.283c0.883,0,1.516,0,1.755,0.042
			c0.238,0.04,0.246,0.059,0.295,0.238c0.08,0.292,0.102,0.374,0.151,0.632h0.333v-2.242h-0.333
			c-0.072,0.298-0.091,0.43-0.151,0.639c-0.042,0.13-0.114,0.139-0.295,0.16c-0.584,0.048-1.169,0.063-1.755,0.049V67.89
			c2.304,0,2.437,0.078,2.516,0.43c0.061,0.25,0.08,0.46,0.141,0.83h0.378c0.042-0.669,0.061-1.271,0.042-1.761H38.308z
			 M44.818,74.002l-0.436-0.111c-0.235-0.061-0.295-0.127-0.303-0.349c-0.008-0.221,0-0.721,0-1.2v-2.923H43.95
			c-0.564,0.003-1.124,0.104-1.652,0.299v0.209l0.436,0.112c0.235,0.06,0.295,0.131,0.303,0.348c0.008,0.218,0,0.722,0,1.204v1.821
			c-0.32,0.296-0.748,0.453-1.186,0.437c-0.921,0-1.054-0.562-1.054-1.738v-2.703h-0.114c-0.564,0.005-1.123,0.105-1.652,0.3v0.22
			l0.436,0.112c0.235,0.06,0.295,0.131,0.303,0.348c0.007,0.218,0,0.722,0,1.204v1.039c0,1.361,0.519,1.981,1.633,1.981
			c0.681,0.028,1.321-0.324,1.652-0.912v0.812h0.08c0.561-0.005,1.118-0.106,1.644-0.3L44.818,74.002z M51.229,74.492v-0.299
			l-0.379-0.124c-0.212-0.067-0.234-0.09-0.243-0.328c-0.007-0.24,0-0.782,0-1.302v-1.122c0-1.368-0.508-1.981-1.633-1.981
			c-0.68-0.03-1.32,0.315-1.664,0.894v-0.822H47.24c-0.564,0.004-1.124,0.104-1.652,0.3v0.22l0.436,0.112
			c0.235,0.06,0.296,0.131,0.307,0.348c0.011,0.218,0,0.722,0,1.204v0.849c0,0.52,0,1.021,0,1.29c0,0.269-0.03,0.262-0.243,0.329
			l-0.398,0.123v0.299h2.334v-0.299l-0.439-0.132c-0.201-0.07-0.22-0.081-0.231-0.328c-0.012-0.247,0-0.774,0-1.294v-1.869
			c0.318-0.3,0.745-0.463,1.186-0.452c0.936,0,1.064,0.561,1.064,1.75v0.591c0,0.519,0,1.013,0,1.282c0,0.269-0.03,0.269-0.234,0.34
			l-0.425,0.13V74.5L51.229,74.492z M57.103,74.039l-0.436-0.1c-0.23-0.061-0.292-0.128-0.303-0.35c-0.011-0.22,0-0.721,0-1.211
			v-5.607h-0.103c-0.563,0.007-1.122,0.107-1.652,0.3v0.221l0.436,0.108c0.231,0.06,0.292,0.13,0.303,0.352
			c0.012,0.22,0,0.721,0,1.199v0.502c-0.25-0.046-0.504-0.069-0.758-0.072c-0.645-0.034-1.283,0.149-1.808,0.521
			c-0.701,0.546-1.084,1.4-1.023,2.28c0,1.432,0.83,2.441,2.027,2.441c0.631,0.007,1.226-0.295,1.584-0.808v0.747h0.068
			c0.564-0.007,1.123-0.107,1.652-0.299L57.103,74.039z M55.349,70.141v3.391c-0.28,0.249-0.646,0.383-1.023,0.373
			c-0.882,0-1.515-0.747-1.515-2.078c0-0.692,0.182-1.313,0.568-1.611c0.24-0.182,0.538-0.275,0.84-0.261
			c0.379,0.004,0.755,0.065,1.115,0.183L55.349,70.141z M63.113,74.018l-0.436-0.113c-0.23-0.06-0.295-0.127-0.303-0.348
			c-0.007-0.22,0-0.722,0-1.2v-2.923h-0.102c-0.564,0.003-1.124,0.104-1.652,0.3v0.193l0.436,0.112
			c0.235,0.06,0.296,0.131,0.307,0.348c0.011,0.218,0,0.722,0,1.204v1.821c-0.321,0.296-0.748,0.453-1.186,0.437
			c-0.922,0-1.054-0.562-1.054-1.738v-2.703h-0.114c-0.565,0.005-1.124,0.105-1.653,0.3v0.22l0.437,0.112
			c0.234,0.06,0.295,0.131,0.307,0.348c0.012,0.218,0,0.722,0,1.204v1.039c0,1.361,0.519,1.981,1.633,1.981
			c0.681,0.028,1.32-0.324,1.651-0.912v0.812h0.084c0.56-0.005,1.116-0.106,1.64-0.3L63.113,74.018z M67.531,73.015
			c0-0.658-0.477-1.121-1.3-1.438l-0.303-0.153c-0.78-0.311-0.943-0.621-0.943-0.931c0-0.311,0.296-0.67,0.914-0.67
			c0.208,0,0.414,0.034,0.61,0.102c0.225,0.09,0.285,0.269,0.405,0.688l0.073,0.243H67.3c0.038-0.461,0.03-0.924-0.022-1.383
			c-0.527,0-0.83-0.091-1.319-0.091c-1.205,0-1.853,0.71-1.853,1.496c0,0.579,0.292,1.091,1.137,1.432l0.314,0.131
			c0.811,0.329,1.023,0.609,1.023,0.938c0,0.399-0.322,0.747-0.963,0.747c-0.284,0.006-0.566-0.044-0.83-0.15
			c-0.243-0.1-0.307-0.249-0.379-0.619l-0.068-0.329h-0.345c-0.066,0.472-0.066,0.948,0,1.421c0.513,0.089,1.03,0.143,1.55,0.159
			c1.349,0,1.99-0.82,1.99-1.592H67.531z M72.321,69.475h-2.903c-0.527,0-1.064-0.029-1.064-0.029
			c-0.034,0.55-0.012,1.102,0.064,1.648h0.303l0.08-0.468c0.083-0.472,0.247-0.643,0.629-0.65l1.675-0.04l-2.384,3.621
			c-0.337,0.527-0.378,0.681-0.378,0.92v0.029h4.248c0.037-0.561,0.014-1.124-0.068-1.681h-0.314l-0.073,0.41
			c-0.09,0.521-0.254,0.748-0.659,0.748l-1.895,0.049l2.372-3.66c0.204-0.254,0.328-0.561,0.356-0.883L72.321,69.475z
			 M82.931,74.216c-0.557-0.132-0.731-0.3-1.614-1.241l-1.034-1.122c-0.17-0.202-0.367-0.38-0.588-0.527
			c0.838-0.274,1.403-1.051,1.398-1.921c0.026-0.881-0.573-1.659-1.439-1.87c-0.44-0.111-0.895-0.162-1.349-0.149
			c-0.465,0-0.697,0.018-1.103,0.018c-0.466,0-1.614-0.018-1.614-0.018v0.341l0.295,0.059c0.545,0.121,0.599,0.14,0.606,0.375
			c0.007,0.234,0,0.643,0,1.121v3.343c0,0.479,0,0.89,0,1.121c0,0.23-0.061,0.239-0.606,0.374l-0.295,0.059v0.341h2.94v-0.341
			l-0.292-0.059c-0.538-0.12-0.599-0.144-0.611-0.374c-0.011-0.231,0-0.643,0-1.121V71.61h0.956c0.155,0.128,0.298,0.272,0.424,0.43
			l1.003,1.181c1.046,1.211,1.451,1.391,2.801,1.331L82.931,74.216z M79.918,69.636c0.005,0.192-0.022,0.384-0.079,0.567
			c-0.079,0.492-0.5,0.857-1.005,0.872h-1.22v-3.126c0.168-0.02,0.339-0.03,0.508-0.03c0.853,0,1.421,0.375,1.664,0.979
			c0.09,0.23,0.134,0.476,0.132,0.722V69.636z M88.212,71.841c0.016-0.491-0.1-0.978-0.333-1.413
			c-0.425-0.707-1.219-1.117-2.051-1.058c-0.559-0.004-1.105,0.156-1.573,0.46c-0.73,0.501-1.138,1.346-1.072,2.221
			c0,1.539,0.86,2.53,2.463,2.53C87.045,74.581,88.212,73.602,88.212,71.841z M87.118,72.141c0,1.121-0.466,1.909-1.33,1.909
			c-1.023,0-1.516-0.968-1.516-2.189c0-0.961,0.254-1.951,1.33-1.951c0.485-0.031,0.946,0.214,1.187,0.632
			c0.264,0.49,0.383,1.045,0.345,1.6H87.118z M92.976,69.459h-2.899c-0.526,0-1.064-0.029-1.064-0.029
			c-0.035,0.551-0.014,1.103,0.061,1.648h0.303l0.083-0.467c0.079-0.471,0.243-0.644,0.629-0.65l1.671-0.041l-2.383,3.622
			c-0.334,0.527-0.378,0.681-0.378,0.92v0.03h4.247c0.036-0.563,0.012-1.127-0.072-1.684h-0.341l-0.068,0.412
			c-0.095,0.521-0.254,0.748-0.659,0.748l-1.895,0.049l2.372-3.66c0.204-0.254,0.326-0.561,0.353-0.883L92.976,69.459z
			 M102.301,69.76v-0.301h-2.272v0.301l0.53,0.16c0.272,0.078,0.321,0.179,0.254,0.411l-0.905,3.028l-1.562-3.87h-0.425
			l-1.228,3.851l-1.247-3.14c-0.072-0.202,0-0.269,0.212-0.321l0.489-0.108v-0.312h-2.456v0.301l0.326,0.089
			c0.182,0.053,0.201,0.131,0.272,0.292l1.572,3.738c0.109,0.253,0.2,0.514,0.273,0.777c0.377-0.045,0.682-0.321,0.758-0.688
			l1.076-2.863l1.106,2.803c0.106,0.24,0.188,0.492,0.244,0.748c0.507-0.12,0.605-0.258,0.817-0.748
			c0.355-0.852,1.027-2.68,1.401-3.634c0.141-0.339,0.224-0.373,0.379-0.418L102.301,69.76z M107.485,71.841
			c0.016-0.491-0.101-0.979-0.337-1.413c-0.423-0.709-1.216-1.119-2.047-1.058c-0.559-0.004-1.106,0.156-1.572,0.46
			c-0.73,0.501-1.138,1.346-1.072,2.221c0,1.539,0.859,2.53,2.463,2.53C106.318,74.581,107.485,73.602,107.485,71.841z
			 M106.39,72.141c0,1.121-0.466,1.909-1.33,1.909c-1.022,0-1.516-0.968-1.516-2.189c0-0.961,0.254-1.951,1.331-1.951
			c0.484-0.031,0.944,0.214,1.186,0.632c0.264,0.49,0.383,1.045,0.344,1.6H106.39z M109.763,69.419h-0.103
			c-0.564,0.005-1.124,0.105-1.652,0.299v0.209l0.436,0.112c0.231,0.06,0.295,0.131,0.304,0.348c0.008,0.218,0,0.722,0,1.204v1.958
			c0,1.529-0.224,2.311-1.208,3.193L107.754,77c1.284-0.748,1.997-1.618,1.997-3.289L109.763,69.419z M109.781,67.609
			c0.016-0.177-0.047-0.351-0.174-0.477c-0.126-0.125-0.303-0.188-0.482-0.174c-0.176-0.009-0.347,0.059-0.47,0.183
			c-0.125,0.124-0.188,0.294-0.177,0.468c-0.019,0.175,0.044,0.35,0.17,0.475c0.124,0.126,0.3,0.189,0.477,0.177
			c0.176,0.006,0.346-0.062,0.468-0.186c0.123-0.123,0.186-0.293,0.174-0.466H109.781z M116.454,74.002l-0.436-0.111
			c-0.235-0.061-0.295-0.127-0.308-0.349c-0.011-0.221,0-0.721,0-1.2v-2.923h-0.103c-0.563,0.003-1.122,0.104-1.651,0.299v0.209
			l0.436,0.112c0.231,0.06,0.292,0.131,0.303,0.348c0.012,0.218,0,0.722,0,1.204v1.821c-0.32,0.296-0.746,0.453-1.186,0.437
			c-0.924,0-1.057-0.562-1.057-1.738v-2.703h-0.11c-0.564,0.005-1.124,0.105-1.653,0.3v0.22l0.437,0.112
			c0.231,0.06,0.293,0.131,0.304,0.348c0.012,0.218,0,0.722,0,1.204v1.039c0,1.361,0.515,1.981,1.63,1.981
			c0.682,0.028,1.322-0.324,1.655-0.912v0.812h0.095c0.563-0.005,1.119-0.106,1.645-0.3V74.002z"/>
		<path fill="#B61929" d="M23.214,57.931H3.026V36.289c0.001-2.921,2.36-5.288,5.27-5.289H29.86v20.262
			c0.001,1.77-0.698,3.467-1.945,4.718C26.668,57.231,24.977,57.933,23.214,57.931z"/>
		<path fill="#FFFFFF" d="M7.626,41.549c6.802-3.186,15.261,3.822,17.745-4.778C18.048,38.828,11.236,33.449,7.626,41.549z"/>
		<path fill="#FFFFFF" d="M7.626,47.195c5.309-2.319,10.72,3.106,13.85-3.475C15.766,45.213,10.443,41.298,7.626,47.195z"/>
		<path fill="#FFFFFF" d="M7.626,52.408c3.648-1.739,7.37,2.336,9.521-2.606C13.213,50.923,9.563,47.986,7.626,52.408z"/>
	</g>
</g>
</svg>
