<?xml version="1.0" encoding="UTF-8" standalone="no"?>
<svg
   xmlns:dc="http://purl.org/dc/elements/1.1/"
   xmlns:cc="http://creativecommons.org/ns#"
   xmlns:rdf="http://www.w3.org/1999/02/22-rdf-syntax-ns#"
   xmlns:svg="http://www.w3.org/2000/svg"
   xmlns="http://www.w3.org/2000/svg"
   xmlns:sodipodi="http://sodipodi.sourceforge.net/DTD/sodipodi-0.dtd"
   xmlns:inkscape="http://www.inkscape.org/namespaces/inkscape"
   viewBox="0 0 404.78723 161.5164"
   id="svg16"
   height="107.25031"
   width="404.78723"
   version="1.1"
   inkscape:version="0.48.5 r10040"
   sodipodi:docname="ink_ext_XXXXXX.svgXT6XWY">
  <sodipodi:namedview
     pagecolor="#ffffff"
     bordercolor="#666666"
     borderopacity="1"
     objecttolerance="10"
     gridtolerance="10"
     guidetolerance="10"
     inkscape:pageopacity="0"
     inkscape:pageshadow="2"
     inkscape:window-width="958"
     inkscape:window-height="1016"
     id="namedview3045"
     showgrid="false"
     inkscape:zoom="1.9384961"
     inkscape:cx="204.68856"
     inkscape:cy="30.387079"
     inkscape:window-x="0"
     inkscape:window-y="31"
     inkscape:window-maximized="0"
     inkscape:current-layer="svg16"
     fit-margin-top="0"
     fit-margin-left="0"
     fit-margin-right="0"
     fit-margin-bottom="0" />
  <metadata
     id="metadata22">
    <rdf:RDF>
      <cc:Work
         rdf:about="">
        <dc:format>image/svg+xml</dc:format>
        <dc:type
           rdf:resource="http://purl.org/dc/dcmitype/StillImage" />
        <dc:title></dc:title>
      </cc:Work>
    </rdf:RDF>
  </metadata>
  <defs
     id="defs20" />
  <g
     transform="translate(110.31675,0.77687854)"
     id="g3064">
    <path
       id="path2"
       style="fill:#ffffff;fill-rule:evenodd"
       d="m -171.20805,92.6655 c -3e-4,0 -5e-4,0 -8e-4,0 -10e-4,0 -0.002,2e-4 -0.004,3e-4 6e-4,0 0.001,-1e-4 0.002,-1e-4 9e-4,-1e-4 0.002,-2e-4 0.003,-2e-4 z"
       inkscape:connector-curvature="0" />
    <path
       id="path4"
       style="fill:#ffffff;fill-rule:evenodd"
       d="m -210.90875,93.2047 h 585.0904 v 68.3117 h -585.0904 z m 20.1852,15.2014 h 11.8841 l 15.4972,21.3464 v -21.3464 h 11.9896 v 38.588 h -11.9896 l -15.4204,-21.1853 v 21.1853 h -11.9609 z m 48.3225,0 h 12.7471 v 38.588 h -12.7471 z m 21.8511,0 h 34.081395 v 8.2382 h -21.334295 v 6.1367 h 19.791195 v 7.8701 h -19.791195 v 7.6014 h 21.957195 v 8.7416 h -34.704295 z m 41.719895,38.588 v -38.588 h 21.1996 c 3.9301,0 6.9394,0.3138 9.0094,0.9521 2.0797,0.6291 3.7574,1.7972 5.0312,3.5131 1.2751,1.7069 1.9075,3.791 1.9075,6.2437 0,2.148 -0.4889,3.9896 -1.4566,5.5438 -0.9773,1.5542 -2.3191,2.8125 -4.0158,3.7826 -1.0929,0.6104 -2.5781,1.1229 -4.466,1.5181 1.5138,0.4763 2.6162,0.9527 3.316,1.4284 0.4604,0.3146 1.1404,0.9889 2.032,2.0215 0.8916,1.0424 1.4853,1.8333 1.7825,2.3994 l 6.1532,11.1853 h -14.3766 l -6.7944,-11.7965 c -0.8631,-1.5187 -1.6295,-2.5159 -2.3103,-2.9736 -0.9099,-0.593 -1.9551,-0.8896 -3.1146,-0.8896 h -1.1214 v 15.6597 z m 12.7757,-22.9555 h 5.367 c 0.5753,0 1.6967,-0.1708 3.3642,-0.5215 0.8433,-0.1611 1.5336,-0.5652 2.0702,-1.2125 0.5271,-0.6465 0.795,-1.3923 0.795,-2.2368 0,-1.2493 -0.4217,-2.2014 -1.265,-2.8659 -0.8432,-0.6743 -2.4243,-1.007 -4.744,-1.007 h -5.5874 z m 57.5809001,-15.6325 h 12.6982 v 23.0089 c 0,2.2819 -0.3829,4.4299 -1.1399,6.4597 -0.7575,2.0215 -1.9456,3.8007 -3.56549996,5.3194 -1.61990004,1.5181 -3.31670004,2.5778 -5.09840004,3.1979 -2.4728,0.8535 -5.4344001,1.2854 -8.9041001,1.2854 -2.0028,0 -4.1886,-0.1263 -6.5552,-0.3958 -2.3673,-0.2604 -4.3415,-0.7812 -5.9328,-1.5632 -1.5907,-0.7812 -3.0474,-1.8958 -4.3701,-3.3333 -1.3227,-1.4375 -2.2231,-2.9201 -2.7121,-4.4472 -0.7861,-2.4528 -1.1793,-4.6271 -1.1793,-6.5229 v -23.0089 h 12.6989 v 23.5568 c 0,2.1118 0.6236,3.7562 1.8593,4.9326 1.2465,1.1861 2.9712,1.7792 5.1848,1.7792 2.185,0 3.9104,-0.5847 5.1569,-1.7521 1.2357001,-1.159 1.8593001,-2.8215 1.8593001,-4.9597 z m 48.5231999,22.82 11.1463,3.1625 c -0.7475,2.9291 -1.926,5.3729 -3.5364,7.3403 -1.6097,1.968 -3.6125,3.4506 -5.9995,4.4478 -2.3864,1.0056 -5.4249,1.5007 -9.1047,1.5007 -4.4755,0 -8.1369,-0.6118 -10.964,-1.8243 -2.8372,-1.2215 -5.2902,-3.3694 -7.3508,-6.4423 -2.0511,-3.0722 -3.0861,-6.9986 -3.0861,-11.7874 0,-6.3875 1.811,-11.3028 5.4337,-14.725 3.6234,-3.4326 8.7503,-5.1486 15.3728,-5.1486 5.1855,0 9.2584,0.9792 12.2296,2.9472 2.9712,1.9674 5.1753,4.9862 6.6129,9.0562 l -11.2326,2.3445 c -0.3931,-1.1764 -0.8051,-2.0389 -1.2363,-2.5875 -0.7093,-0.9069 -1.5812,-1.6077 -2.6067,-2.1021 -1.0357,-0.4944 -2.1851,-0.7368 -3.4602,-0.7368 -2.8753,0 -5.0889,1.0875 -6.6224,3.2611 -1.1595,1.6174 -1.7437,4.1514 -1.7437,7.6104 0,4.2854 0.6991,7.2145 2.0789,8.8041 1.3901,1.591 3.3358,2.382 5.837,2.382 2.4347,0 4.2742,-0.6389 5.5201,-1.9229 1.2465,-1.2765 2.147,-3.1354 2.7121,-5.5799 z m 17.3763,-22.82 h 12.7178 v 13.5034 h 13.9066 v -13.5034 h 12.7751 v 38.588 h -12.7751 v -15.6062 h -13.9066 v 15.6062 h -12.7178 z m 46.243005,19.3166 c 0,-6.2986 1.8783,-11.2042 5.6159,-14.7076 3.7478,-3.5132 8.9612,-5.2653 15.6414,-5.2653 6.8524,0 12.1338,1.725 15.8422,5.175 3.6995,3.4409 5.5588,8.275 5.5588,14.4833 0,4.5097 -0.8148,8.2117 -2.4347,11.0958 -1.6192,2.884 -3.9579,5.1298 -7.0148,6.7382 -3.0678,1.6082 -6.872,2.4083 -11.4435,2.4083 -4.6393,0 -8.4817,-0.6924 -11.5297,-2.0757 -3.0385,-1.3924 -5.501,-3.5848 -7.3991,-6.5861 -1.8879,-3 -2.8365,-6.7562 -2.8365,-11.2659 z m 12.7273,0.0534 c 0,3.8993 0.7664,6.6937 2.3095,8.4007 1.5431,1.6979 3.652,2.5521 6.3069,2.5521 2.7312,0 4.8489,-0.8362 6.3443,-2.4979 1.4955,-1.6715 2.2524,-4.6632 2.2524,-8.9757 0,-3.6389 -0.7862,-6.2889 -2.3483,-7.9694 -1.562,-1.6716 -3.6805,-2.5062 -6.364,-2.5062 -2.559,0 -4.6196,0.8444 -6.1715,2.5513 -1.5533,1.698 -2.3293,4.5188 -2.3293,8.4451 z m 36.6398,-19.37 h 16.7336 l 6.4599,23.4763 6.4307,-23.4763 h 16.6766 v 38.588 h -10.3894 v -29.4242 l -8.0601,29.4242 h -9.4018 l -8.0316,-29.4242 v 29.4242 h -10.4179 z m 52.8076,19.3166 c 0,-6.2986 1.879,-11.2042 5.6166,-14.7076 3.7472,-3.5132 8.9612,-5.2653 15.6408,-5.2653 6.8523,0 12.1337,1.725 15.8428,5.175 3.6989,3.4409 5.5588,8.275 5.5588,14.4833 0,4.5097 -0.8147,8.2117 -2.4346,11.0958 -1.6199,2.884 -3.958,5.1298 -7.0156,6.7382 -3.067,1.6082 -6.872,2.4083 -11.4434,2.4083 -4.6387,0 -8.4817,-0.6924 -11.5291,-2.0757 -3.0386,-1.3924 -5.501,-3.5848 -7.3997,-6.5861 -1.8872,-3 -2.8366,-6.7562 -2.8366,-11.2659 z m 12.7274,0.0534 c 0,3.8993 0.7671,6.6937 2.3101,8.4007 1.5431,1.6979 3.6513,2.5521 6.3063,2.5521 2.7318,0 4.8495,-0.8362 6.3443,-2.4979 1.4955,-1.6715 2.2524,-4.6632 2.2524,-8.9757 0,-3.6389 -0.7855,-6.2889 -2.3476,-7.9694 -1.5628,-1.6716 -3.6805,-2.5062 -6.3641,-2.5062 -2.559,0 -4.6196,0.8444 -6.1722,2.5513 -1.5526,1.698 -2.3292,4.5188 -2.3292,8.4451 z m 34.5601,6.4507 12.1051,-0.7097 c 0.2585,1.8423 0.7957,3.2437 1.6002,4.2139 1.3037,1.5631 3.1821,2.336 5.616,2.336 1.8117,0 3.2106,-0.3951 4.198,-1.1951 0.978,-0.7993 1.4669,-1.725 1.4669,-2.7763 0,-0.9973 -0.4604,-1.8952 -1.3995,-2.6862 -0.9392,-0.7902 -3.1052,-1.5361 -6.5178,-2.2367 -5.5772,-1.1772 -9.5549,-2.7313 -11.9317,-4.6813 -2.3958,-1.95 -3.5941,-4.4291 -3.5941,-7.4479 0,-1.9854 0.6134,-3.8632 1.8402,-5.6242 1.2268,-1.7612 3.0671,-3.1445 5.5303,-4.1598 2.4625,-1.0062 5.8363,-1.5097 10.1207,-1.5097 5.2617,0 9.2768,0.9167 12.0371,2.7493 2.7604,1.8326 4.3993,4.7527 4.9264,8.7513 l -11.9895,0.6556 c -0.3163,-1.734 -0.9868,-3.0007 -2.0123,-3.7916 -1.016,-0.7813 -2.4251,-1.1764 -4.2178,-1.1764 -1.4852,0 -2.5965,0.2868 -3.3445,0.8799 -0.7474,0.584 -1.1215,1.3027 -1.1215,2.1471 0,0.6111 0.3068,1.1598 0.9202,1.6535 0.6039,0.5118 2.0225,0.9792 4.2748,1.4194 5.5582,1.123 9.5359,2.2639 11.942,3.4139 2.4054,1.1508 4.1586,2.5702 5.2514,4.2764 1.0929,1.6986 1.6492,3.6035 1.6492,5.7146 0,2.4708 -0.7386,4.7527 -2.1952,6.8367 -1.4568,2.0938 -3.4983,3.6751 -6.124,4.7535 -2.617,1.0778 -5.9234,1.6174 -9.9106,1.6174 -6.9965,0 -11.846,-1.2584 -14.5384,-3.7917 -2.7025,-2.525 -4.2266,-5.7319 -4.5816,-9.6319 z m 18.5644,-36.2429 h 9.8242 l -9.0673,7.8701 h -5.4725 z m 52.5879,33.2422 11.1463,3.1625 c -0.7474,2.9291 -1.9267,5.3729 -3.5364,7.3403 -1.6104,1.968 -3.6131,3.4506 -6.0002,4.4478 -2.3864,1.0056 -5.4242,1.5007 -9.1047,1.5007 -4.4754,0 -8.1362,-0.6118 -10.9639,-1.8243 -2.8372,-1.2215 -5.2903,-3.3694 -7.3508,-6.4423 -2.0512,-3.0722 -3.0862,-6.9986 -3.0862,-11.7874 0,-6.3875 1.8117,-11.3028 5.4344,-14.725 3.6227,-3.4326 8.7497,-5.1486 15.3721,-5.1486 5.1855,0 9.2591,0.9792 12.2297,2.9472 2.9711,1.9674 5.1752,4.9862 6.6129,9.0562 l -11.2326,2.3445 c -0.3925,-1.1764 -0.8052,-2.0389 -1.2357,-2.5875 -0.7093,-0.9069 -1.5818,-1.6077 -2.6073,-2.1021 -1.0351,-0.4944 -2.1851,-0.7368 -3.4596,-0.7368 -2.8759,0 -5.0889,1.0875 -6.6224,3.2611 -1.1602,1.6174 -1.7444,4.1514 -1.7444,7.6104 0,4.2854 0.6991,7.2145 2.0796,8.8041 1.3901,1.591 3.3351,2.382 5.8363,2.382 2.4347,0 4.2749,-0.6389 5.5208,-1.9229 1.2459,-1.2765 2.147,-3.1354 2.7121,-5.5799 z m 17.8265,-22.82 h 12.7464 v 38.588 h -12.7464 z"
       inkscape:connector-curvature="0" />
    <path
       id="path6"
       style="fill:#ffffff;fill-rule:evenodd"
       d="m -95.899255,50.8317 c 0,-4.4615 0.9549,-8.9461 2.8899,-13.4307 1.4193,-3.2427 3.4062,-6.1867 5.9346,-8.9004 2.5549,-2.6907 5.7285,-5.0823 9.5473,-7.1984 3.8442,-2.0925 7.7407,-3.6105 11.7402,-4.5077 3.9991,-0.9198 8.4372,-1.3795 13.3656,-1.3795 8.3859,0 15.6622,1.4026 21.8292,4.2086 6.1666,2.8056 11.0433,6.5772 14.5783,11.3609 4.593,6.2093 6.8895001,12.7407 6.8895001,19.5712 0,10.165 -3.8706001,18.8813 -11.6372001,26.1484 -7.7666,7.2445 -18.552,10.8781 -32.3821,10.8781 -3.432,0 -6.6315,-0.1837 -9.6245,-0.5977 -2.2446,-0.276 -4.2315,-0.6669 -5.9087,-1.1732 -3.0705,-0.8967 -4.7995,-1.4256 -5.1609,-1.5636 -4.3864,-2.231 -7.9214,-4.5077 -10.5788,-6.8536 -2.6579,-2.3228 -4.9026,-4.9674 -6.7605,-7.911 -1.0061,-1.6559 -2.167,-4.6456 -3.4574,-8.9465 -0.8513,-2.7825 -1.2645,-6.0021 -1.2645,-9.7049 z m 41.1812,-30.0815 c -3.5092,0 -6.6057,0.7361 -9.3148,2.1849 -2.7092,1.4491 -4.7219,3.0589 -6.1153,4.8298 -2.2965,2.9666 -3.9219,6.2324 -4.8767,9.7741 -0.9803,3.5417 -1.4706,7.8421 -1.4706,12.9018 0,3.1047 0.1548,5.3125 0.4386,6.6464 0.0776,0.4139 0.2066,1.1496 0.3614,2.2079 0.3609,2.6445 0.7741,4.5995 1.264,5.8184 1.7289,4.5534 2.9675,7.382 3.6899,8.4629 1.2127,1.817 2.9934,3.634 5.3929,5.4275 1.1868,0.9429 2.9412,1.7939 5.2376,2.5757 2.3224,0.7592 4.6189,1.1501 6.9153,1.1501 4.3351,0 8.3859,-0.8967 12.1271,-2.7137 3.7157,-1.817 6.7087,-4.8986 8.9798,-9.2452 2.2446,-4.3466 3.3797,-10.0039 3.3797,-16.9724 0,-2.8748 -0.232,-6.7844 -0.6706,-11.706 l -0.3096,-1.0348 c -0.1036,-0.276 -0.3097,-1.0121 -0.5934,-2.2079 -1.497,-5.8876 -4.3351,-10.3722 -8.5666,-13.4769 -4.2061,-3.0816 -9.4955,-4.6226 -15.8687,-4.6226 z m 55.42440014,67.2003 0.1807,-3.6797 C 5.9185451,83.6957 9.1435451,82.7759 10.511045,81.5339 c 0.8777,-0.8741 1.5741,-3.1046 2.0386,-6.7382 l 0.8,-19.2034 0.903,-19.5021 c 0.0772,-1.1962 0.129,-1.9088 0.129,-2.1622 0,-5.0592 -0.3355,-8.0032 -1.0061,-8.785 -0.6711,-0.7818 -3.2513,-1.5637 -7.7665999,-2.3229 -1.1356,-0.2067 -2.0127,-0.3909 -2.6579,-0.5289 -0.0772,-0.8967 -0.1289,-1.6559 -0.1289,-2.2766 v -1.656 c 1.4964,-0.1149 3.2513,-0.1611 5.2635,-0.1611 l 17.7265999,0.5289 c 0.3868,0.0462 0.9548,0.0693 1.6771,0.1154 l 2.7869,0.1149 c 0.6964,0.7127 1.3675,1.656 2.0639,2.8518 1.4965,2.6214 3.4574,6.4622 5.9346,11.5218 l 0.6452,1.4719 9.4438,18.2605 c 0.2066,0.4366 0.5162,1.0578 0.9548,1.8858 0.6193,1.2876 1.2386,2.5296 1.8833,3.7023 0.6452,1.1732 1.3162,2.4378 2.0386,3.8408 0.6964,1.403 1.3675,2.6449 2.0127,3.7258 0.5675,-0.851 1.1091,-1.817 1.6254,-2.8517 1.6254,-3.3119 3.1995,-6.3478 4.7219,-9.1072 2.6578,-4.8986 6.2701,-12.3729 10.8371,-22.423 0.7224,-1.6329 1.9092,-4.0476 3.5864,-7.3133 1.6771,-3.2426 2.6061,-4.9678 2.7609,-5.1515 0.3614,-0.276 1.0838,-0.414 2.1675,-0.414 0.4127,0 1.032,-0.023 1.8838,-0.0692 2.0899,-0.0918 4.6184,-0.1837 7.56,-0.2529 4.2315,-0.0461 7.6376,-0.1611 10.192005,-0.3678 2.5543,-0.1842 3.9995,-0.2991 4.3092,-0.2991 0.4127,0 0.903,0.0461 1.4706,0.1149 0.0258,0.5059 0.0517,0.8972 0.0517,1.1958 l -0.1289,1.6098 c 0,0.3222 0,0.8053 -0.0518,1.4492 -3.7929,0.5058 -6.863505,1.2646 -9.263105,2.2767 -1.6512,0.713 -2.4771,1.6098 -2.4771,2.6907 v 0.8048 l 1.032,16.4897 c 0.1294,1.518 0.439,9.0154 0.9807,22.4918 0.1031,3.0128 0.3614,6.8305 0.7741,11.4762 0.0772,0.575 0.129,1.0116 0.129,1.3338 0.0258,0.8741 0.2578,1.4256 0.6192,1.679 0.3869,0.2529 3.999605,1.2876 10.863105,3.1277 0.0513,0.5746 0.0513,1.0117 0.0513,1.2877 0,0.7591 0,1.5179 -0.0513,2.2767 -1.0838,0 -3.8188,-0.2068 -8.2311,-0.6208 -4.386305,-0.414 -8.489405,-0.6212 -12.333605,-0.6212 -5.8315,0 -11.5341,0.2072 -17.0555,0.6443 -0.7228,0.0688 -1.4193,0.1149 -2.1158,0.161 l 0.129,-3.7258 c 1.6512,-0.5751 3.8442,-1.0578 6.5792,-1.4488 1.9356,-0.299 3.1742,-0.7822 3.6899,-1.4491 0.5421,-0.69 0.8,-2.5988 0.8,-5.7266 0,-1.1727 -0.0259,-2.2305 -0.0772,-3.1272 -0.1807,-3.772 -0.3096,-9.0154 -0.3613,-15.731 l -1.0066,-19.0193 c -0.129,-2.7137 -0.2838,-4.5764 -0.4387,-5.6112 l -15.0427,30.8172 c -0.3615,0.7357 -0.929,1.7709 -1.6513,3.1277 -0.929,1.7709 -1.5483,2.9667 -1.8579,3.6105 -3.1219,6.6464 -5.2635,11.7522 -6.4762,15.2708 -0.3356,0.8968 -0.8,2.0469 -1.4452,3.4956 l -4.6701,-0.0461 -3.2513,-8.2562 c -0.9803,-2.1618 -2.632,-5.4275 -4.9798,-9.8202 -1.3675,-2.5297 -2.4254,-4.5996 -3.1995,-6.1863 -0.3614,-0.6438 -0.6193,-1.127 -0.7741,-1.4487 l -0.7224,-1.3569 c -0.0517,-0.2072 -0.1035,-0.3909 -0.1807,-0.5289 l -9.031,-17.3176 -5.496,-10.5102 -0.4904,25.505 -0.4127,16.5354 c 0,2.7368 0.5675,4.6913 1.729,5.8645 1.135,1.1497 3.6122,2.1618 7.4051,2.9897 l 2.8899,0.6439 v 3.9326 c -2.3223,-0.0461 -4.8508,-0.1841 -7.5341,-0.4601 -2.6579,-0.276 -6.2188,-0.414 -10.6565,-0.414 -0.9289,0 -4.9024999,0.1841 -11.92089986,0.5063 z M 127.52595,87.9962 v -3.8865 c 0.8,-0.2068 2.1417,-0.5058 3.9996,-0.9198 2.6061,-0.5751 4.567,-1.1501 5.8574,-1.7709 0.7223,-1.1039 1.0837,-2.668 1.0837,-4.6456 l -0.0517,-6.3474 0.1289,-12.3041 -0.0772,-2.8975 c 0.2838,-7.1065 0.4386,-10.7862 0.4386,-10.9929 l -0.1289,-7.1757 0.1802,-2.8975 -0.3092,-6.1636 -0.0517,-2.2998 c -0.0259,-0.3678 -0.1807,-0.9428 -0.4127,-1.7247 -1.6518,-0.6899 -4.3351,-1.127 -8.0508,-1.3111 -0.8772,-0.0226 -1.5996,-0.0919 -2.1158,-0.1606 l -0.1807,-4.7376 17.288,0.6439 c 2.1416,0.0687 3.4832,0.1149 3.9995,0.1149 2.3736,0 6.1925,-0.138 11.4306,-0.4371 2.9411,-0.1841 4.799,-0.276 5.5731,-0.3217 0.0259,0.6896 0.0518,1.2646 0.0518,1.7247 0,0.6208 -0.0518,1.4026 -0.1289,2.3686 -1.6,0.5063 -3.4579,0.989 -5.5219,1.4261 -2.0899,0.4597 -3.7929,0.9198 -5.1092,1.3799 -0.2579,0.9429 -0.3609,2.2767 -0.3609,4.0476 0,1.541 0.0513,2.8056 0.1807,3.7715 -0.1294,6.0714 -0.1807,10.7401 -0.1807,14.0058 l 0.0513,14.2356 -0.1803,7.2214 0.129,10.7862 -0.0777,2.0469 c 0,0.276 0.0777,0.6895 0.2584,1.2415 2.4513,0.4601 4.696,0.7822 6.7087,0.9659 0.3609,0.0462 1.5995,0.1842 3.6894,0.4371 0.1548,1.0809 0.2325,1.9781 0.2325,2.6907 0,0.3909 -0.0259,1.0121 -0.0518,1.8401 -0.5416,0 -0.929,0 -1.2127,0.0457 -1.2899,0.0692 -2.0381,0.1153 -2.2447,0.1153 -0.2838,0 -0.8,-0.0692 -1.5741,-0.161 -0.5676,-0.0923 -3.2508,-0.3222 -8.0245,-0.7592 l -10.7082,-0.115 c -2.1417,0 -5.2377,0.1842 -9.3148,0.552 -2.6574,0.2072 -4.4123,0.3222 -5.2123,0.3679 z m 50.9609,-65.5439 -0.2583,-3.7715 h 5.1604 l 1.7549,-0.0462 c 2.3995,-0.1149 4.0767,-0.1841 5.0056,-0.1841 0.4904,0 1.9097,0.0461 4.2315,0.1153 0.5422,0.0457 0.9807,0.0688 1.3417,0.0688 0.3614,0 1.6259,-0.0461 3.7934,-0.1149 2.1929,-0.0692 3.4056,-0.1149 3.6894,-0.1149 0.4645,0 1.0838,0.023 1.8838,0.0457 6.2183,5.0366 11.2757,9.3832 15.1717,12.9941 3.9224,3.6335 18.191,16.3286 42.8324,38.1073 v -1.3338 l -0.2579,-6.2554 c -0.103,-3.6567 -0.2837,-6.5776 -0.4644,-8.7163 -0.2066,-2.1387 -0.3356,-4.6914 -0.3614,-7.6354 -0.0513,-2.9667 -0.2061,-5.6574 -0.4386,-8.072 -0.4899,-4.7145 -0.7224,-7.4056 -0.7224,-8.1413 -0.0517,-2.3228 -0.3355,-3.7489 -0.8513,-4.2547 -0.8517,-0.7818 -2.7868,-1.38 -5.8056,-1.7709 -2.2193,-0.3217 -3.8706,-0.7356 -4.9543,-1.2419 l 0.0517,-3.1735 1.5741,-0.161 11.9205,-0.3452 13.3143,-0.3217 c 0.8772,-0.0231 1.729,-0.0462 2.5285,-0.0462 l 0.0518,3.4956 c -0.929,0.437 -1.8579,0.7592 -2.8382,0.989 -2.5802,0.5289 -4.0771,0.8972 -4.464,1.1271 -2.064,1.0347 -3.1736,1.6559 -3.3284,1.8857 -0.3614,0.4371 -0.5421,1.104 -0.5421,2.0007 0,0.2072 0.0259,0.966 0.1035,2.2541 0.0513,0.6438 0.0772,2.1617 0.0772,4.5303 0.0258,5.1976 0.2065,9.3144 0.4903,12.3499 0.0772,0.9659 0.129,2.0468 0.1807,3.2887 l 0.6452,18.9044 c 0.0513,1.3338 0.0772,2.2767 0.0772,2.8056 v 6.6233 l 0.1807,2.806 -0.1807,2.9205 c 0.1548,1.4718 0.2324,2.3459 0.2324,2.645 v 2.8517 l -6.9411,0.2068 -7.1991,-6.6233 -14.7073,-12.9937 -10.2696,-9.1533 -7.56,-6.8993 c -4.9284,-4.3235 -9.392,-8.1181 -13.4433,-11.3839 l -9.8564,-7.9113 0.5416,20.054 c 0.0518,1.2188 0.0777,2.4608 0.0777,3.772 l -0.0777,3.8172 0.3873,7.0608 c 0.1031,2.9436 0.3351,6.1401 0.6447,9.59 0.0777,0.9429 0.1807,1.5867 0.3097,1.9776 0.1294,0.3683 0.3614,0.9202 0.7228,1.6329 1.5736,0.5062 5.0056,0.8972 10.2951,1.127 0.3613,0.0918 0.8771,0.2068 1.5741,0.3909 l 0.232,4.3697 -2.3478,0.0461 c -1.2904,0 -5.3671,-0.276 -12.2306,-0.8049 -6.399,0.0688 -10.6823,0.1837 -12.824,0.3217 -2.1416,0.138 -3.3026,0.2072 -3.5091,0.2072 -0.4645,0 -1.1351,-0.0692 -1.9869,-0.2072 -0.0771,-0.8279 -0.1289,-1.5406 -0.1289,-2.1617 0,-0.391 0.0259,-1.0348 0.0772,-1.932 1.1096,-0.1837 2.0386,-0.276 2.7609,-0.276 0.2584,0 1.0325,0.0462 2.3741,0.1154 3.3803,0 5.3925,-0.2303 6.0118,-0.6673 0.6193,-0.4597 0.9807,-1.6786 1.0579,-3.6567 0.2842,-5.7034 0.4131,-9.199 0.4131,-10.4409 v -2.9667 l 0.129,-17.5244 -0.1807,-10.9469 c -0.0259,-4.1629 -0.3355,-7.0603 -0.9031,-8.6701 -0.2324,-0.828 -0.6964,-1.541 -1.3934,-2.1622 -1.4193,-1.2877 -2.9929,-2.2536 -4.7219,-2.8975 -1.032,-0.4139 -3.767,-0.9198 -8.1534,-1.5179 z m 109.2738,29.7593 c 0,-4.4615 0.9548,-8.9461 2.8899,-13.4307 1.4193,-3.2426 3.4061,-6.1867 5.9346,-8.9004 2.5548,-2.6907 5.7284,-5.0823 9.5473,-7.1983 3.8442,-2.0926 7.7406,-3.6105 11.7402,-4.5077 3.999,-0.9198 8.4371,-1.3795 13.3656,-1.3795 8.3859,0 15.6621,1.4025 21.8292,4.2086 6.1665,2.8056 11.0432,6.5771 14.5783,11.3608 4.5929,6.2093 6.8894,12.7407 6.8894,19.5712 0,10.1651 -3.8706,18.8813 -11.6372,26.1485 -7.7666,7.2445 -18.5519,10.878 -32.382,10.878 -3.4321,0 -6.6316,-0.1837 -9.6245,-0.5977 -2.2447,-0.2759 -4.2315,-0.6669 -5.9087,-1.1731 -3.0706,-0.8968 -4.7995,-1.4257 -5.161,-1.5637 -4.3863,-2.231 -7.9214,-4.5076 -10.5788,-6.8536 -2.6578,-2.3228 -4.9026,-4.9673 -6.7604,-7.9109 -1.0062,-1.6559 -2.1671,-4.6457 -3.4574,-8.9466 -0.8513,-2.7825 -1.2645,-6.0021 -1.2645,-9.7049 z m 41.1811,-30.0814 c -3.5091,0 -6.6056,0.7361 -9.3148,2.1848 -2.7092,1.4492 -4.7219,3.059 -6.1153,4.8298 -2.2964,2.9667 -3.9219,6.2324 -4.8767,9.7741 -0.9802,3.5417 -1.4706,7.8422 -1.4706,12.9018 0,3.1047 0.1549,5.3126 0.4386,6.6464 0.0777,0.414 0.2066,1.1497 0.3614,2.2079 0.361,2.6445 0.7742,4.5995 1.264,5.8184 1.729,4.5534 2.9676,7.3821 3.6899,8.4629 1.2127,1.8171 2.9934,3.634 5.393,5.4275 1.1868,0.9429 2.9411,1.794 5.2376,2.5758 2.3223,0.7592 4.6188,1.1501 6.9153,1.1501 4.3351,0 8.3859,-0.8968 12.127,-2.7138 3.7158,-1.817 6.7087,-4.8985 8.9798,-9.2451 2.2447,-4.3467 3.3797,-10.004 3.3797,-16.9725 0,-2.8748 -0.232,-6.7844 -0.6705,-11.706 l -0.3097,-1.0347 c -0.1035,-0.276 -0.3096,-1.0122 -0.5934,-2.208 -1.4969,-5.8876 -4.3351,-10.3722 -8.5666,-13.4768 -4.2061,-3.0816 -9.4955,-4.6226 -15.8687,-4.6226 z"
       inkscape:connector-curvature="0" />
    <path
       id="path8"
       style="fill:#ffffff;fill-rule:evenodd"
       d="m -176.82615,87.0474 c -3e-4,0 -5e-4,0 -8e-4,0 -10e-4,1e-4 -0.002,2e-4 -0.004,3e-4 6e-4,0 0.001,-1e-4 0.002,-1e-4 9e-4,0 0.002,-2e-4 0.003,-2e-4 z"
       inkscape:connector-curvature="0" />
    <path
       id="path10"
       style="fill:#ffffff;fill-rule:evenodd"
       d="m -212.84545,81.809 c 1.733,-0.6567 3.7277,-1.0799 5.9834,-1.2916 3.3012,-0.3382 5.7467,-1.0368 7.3855,-2.116 1.258,-2.2648 1.8756,-8.0638 1.8756,-17.3549 v -9.7991 l 0.1426,-5.8841 -0.1426,-4.3388 0.1426,-8.0001 -0.214,-20.1486 c 0,-2.2858 -0.3801,-3.7668 -1.116,-4.4653 -1.0683,-1.0375 -3.8939,-1.9896 -8.4773,-2.8572 -1.8991,-0.3814 -3.0631,-0.7195 -3.4903,-1.0158 -0.4036,-0.3178 -0.6646,-0.9102 -0.7602,-1.7778 1.0691,-0.2117 1.805,-0.3179 2.2322,-0.3179 h 4.9394 l 2.5645,-0.0636 c 1.7094,0 3.6093,0.1698 5.6988,0.5079 4.274,0.2543 8.6671,0.3604 13.155,0.3604 1.3058,0 3.1586,-0.0426 5.5562,-0.1697 6.4112,-0.3388 10.9947,-0.5078 13.7968,-0.5078 5.604,0 10.8992,0.5078 15.8856,1.5026 4.9864,0.9737 10.1154,2.8146 15.4107,5.5027 3.3005,1.6934 6.6723,4.3809 10.1154,8.0428 3.4674,3.6613 6.079,7.6403 7.8604,11.9576 1.7808,4.3179 2.683,9.1856 2.683,14.6038 0,4.8462 -0.9735,9.6293 -2.9447,14.3915 -1.9947,4.7412 -4.7254,8.8678 -8.2633,12.36 -3.5144,3.4922 -7.076,6.1168 -10.7095,7.8731 -3.6093,1.7568 -9.142,3.2804 -16.5503,4.5715 -3.0631,0.4869 -8.5487,0.7411 -16.4797,0.7411 -5.2475,0 -9.5221,-0.1481 -12.7984,-0.4442 -1.3065,-0.1698 -2.7071,-0.2334 -4.1798,-0.2334 -0.2375,0 -0.4985,0.0217 -0.7831,0.0426 l -28.3759,0.4443 -0.1426,-0.4869 c -0.0949,-0.2117 -0.1426,-0.4443 -0.1426,-0.6979 z m 36.0492,-3.7906 c 1.6534,0.5035 3.3068,0.878 4.9624,1.1259 1.6802,0.2516 3.3883,0.3762 5.1263,0.3762 2.2796,0 4.5105,-0.1511 6.6945,-0.4584 2.1907,-0.3081 4.3776,-0.7777 6.5635,-1.4132 h 0.007 c 2.1434,-0.6165 4.1806,-1.3709 6.1053,-2.2628 1.9107,-0.8853 3.68,-1.8913 5.3014,-3.0175 l 0.013,-0.0116 c 1.6606,-1.1358 3.167,-2.3465 4.5239,-3.6317 1.3529,-1.2812 2.5592,-2.639 3.6241,-4.0727 1.0658,-1.4254 1.9789,-2.7933 2.7413,-4.0976 0.7581,-1.2972 1.3557,-2.5158 1.7954,-3.6508 l -0.006,0.0173 c 0.6252,-1.6825 1.0904,-3.6111 1.3981,-5.7832 0.3104,-2.1909 0.4643,-4.6743 0.4643,-7.4467 0,-2.607 -0.3038,-5.2243 -0.9168,-7.8513 -0.6152,-2.6359 -1.5389,-5.2921 -2.7764,-7.9681 l -0.007,-0.006 c -0.8301,-1.8094 -1.9736,-3.5823 -3.4328,-5.3154 -1.4768,-1.7538 -3.2793,-3.4751 -5.4095,-5.1604 h -0.0131 c -2.1252,-1.6904 -4.4369,-3.1504 -6.9292,-4.377 -2.5114,-1.236 -5.2254,-2.2486 -8.136,-3.035 -2.9413,-0.7978 -5.9958,-1.3968 -9.1571,-1.7938 -3.1625,-0.3972 -6.466,-0.5972 -9.9043,-0.5972 -2.3243,0 -4.3321,0.115 -6.0262,0.3426 -1.5017,0.2017 -2.7401,0.4859 -3.7174,0.85 -0.0371,0.0356 -0.0726,0.0711 -0.1066,0.1073 -0.0562,0.0599 -0.1066,0.1155 -0.1537,0.168 -0.0921,0.3597 -0.1628,0.7011 -0.2113,1.0233 -0.0584,0.3878 -0.0877,0.7781 -0.0877,1.1679 0,0.244 0.006,0.5249 0.0178,0.845 0.01,0.2661 0.0276,0.5981 0.0536,0.9999 v 0.0463 c 0.0708,2.3891 0.1244,4.5517 0.1604,6.493 0.0355,1.9205 0.0535,3.6108 0.0535,5.0761 v 0.006 l -0.0713,14.0739 c 0,10.3054 0.1069,18.3307 0.3205,24.081 0.2087,5.6181 0.5011,8.9415 0.8772,9.9747 0.3385,0.9228 1.0098,1.8061 2.008,2.6489 1.0601,0.8951 2.4793,1.7379 4.2513,2.5271 z"
       inkscape:connector-curvature="0" />
    <path
       id="path12"
       style="fill:#ffffff;fill-rule:evenodd"
       d="m 382.81295,0 c 7.6197,0 13.7989,6.1793 13.7989,13.7989 0,7.6196 -6.1792,13.7989 -13.7989,13.7989 -7.6196,0 -13.7989,-6.1793 -13.7989,-13.7989 0,-7.6196 6.1793,-13.7989 13.7989,-13.7989 z m 0,2.7209 c 6.1172,0 11.078,4.9608 11.078,11.078 0,6.1172 -4.9608,11.078 -11.078,11.078 -6.1172,0 -11.078,-4.9608 -11.078,-11.078 0,-6.1172 4.9608,-11.078 11.078,-11.078 z"
       inkscape:connector-curvature="0" />
    <path
       id="path14"
       style="fill:#ffffff;fill-rule:evenodd"
       d="M 377.10515,21.0543 V 6.5445 h 6.1688 c 1.5506,0 2.6756,0.1317 3.3783,0.3918 0.7027,0.2601 1.2668,0.723 1.6892,1.3885 0.4223,0.6689 0.6317,1.429 0.6317,2.2872 0,1.0877 -0.3209,1.9898 -0.9595,2.6992 -0.6384,0.7061 -1.5979,1.1554 -2.8715,1.3378 0.6351,0.3717 1.1588,0.777 1.5709,1.2196 0.4121,0.4426 0.9662,1.2263 1.6655,2.3547 l 1.7736,2.831 h -3.5033 l -2.1182,-3.1587 c -0.7534,-1.1283 -1.2669,-1.8378 -1.5439,-2.1317 -0.277,-0.2939 -0.5709,-0.4932 -0.8818,-0.6048 -0.3107,-0.1081 -0.8006,-0.1621 -1.4763,-0.1621 h -0.5911 v 6.0573 z m 2.9324,-8.3749 h 2.1654 c 1.4054,0 2.2838,-0.0573 2.6351,-0.1756 0.348,-0.1182 0.6216,-0.3243 0.821,-0.6149 0.1959,-0.2905 0.2973,-0.6519 0.2973,-1.0878 0,-0.4898 -0.1318,-0.8817 -0.3919,-1.1824 -0.2602,-0.3007 -0.6284,-0.4898 -1.1047,-0.5709 -0.2365,-0.0304 -0.9494,-0.0473 -2.1385,-0.0473 h -2.2837 z"
       inkscape:connector-curvature="0" />
  </g>
</svg>
